<svg xmlns="http://www.w3.org/2000/svg" viewBox="0 0 1200 630" width="1200" height="630">
  <defs>
    <linearGradient id="bgGrad" x1="0%" y1="0%" x2="100%" y2="100%">
      <stop offset="0%" stop-color="#020617" />
      <stop offset="50%" stop-color="#09132b" />
      <stop offset="100%" stop-color="#020617" />
    </linearGradient>
    <linearGradient id="cyanGrad" x1="0%" y1="0%" x2="100%" y2="100%">
      <stop offset="0%" stop-color="#06b6d4" />
      <stop offset="100%" stop-color="#3b82f6" />
    </linearGradient>
  </defs>
  <rect width="1200" height="630" fill="url(#bgGrad)" />
  <circle cx="1000" cy="100" r="300" fill="#06b6d4" opacity="0.08" filter="blur(80px)" />
  <circle cx="200" cy="500" r="250" fill="#3b82f6" opacity="0.08" filter="blur(80px)" />
  
  <!-- Logo Icon -->
  <g transform="translate(100, 180)">
    <rect width="160" height="160" rx="36" fill="url(#cyanGrad)" />
    <path d="M110 50 C 96 36, 64 36, 50 50 C 34 66, 34 94, 50 110 C 66 126, 98 122, 112 106 L 112 84 L 76 84 L 76 68 L 128 68 L 128 112 C 108 134, 64 140, 38 118 C 16 96, 16 64, 38 42 C 58 22, 100 22, 122 42 Z" fill="#ffffff" />
  </g>

  <!-- Typography -->
  <text x="300" y="275" font-family="-apple-system, BlinkMacSystemFont, 'Segoe UI', Roboto, sans-serif" font-size="88" font-weight="900" fill="#ffffff" letter-spacing="-3">GLODAXIA</text>
  <text x="305" y="325" font-family="-apple-system, BlinkMacSystemFont, 'Segoe UI', Roboto, sans-serif" font-size="24" font-weight="700" fill="#06b6d4" letter-spacing="4">TECH &amp; AI NEWS MAGAZINE</text>
  
  <!-- Slogan -->
  <text x="100" y="460" font-family="-apple-system, BlinkMacSystemFont, 'Segoe UI', Roboto, sans-serif" font-size="32" font-weight="500" fill="#94a3b8">The Future of Technology, Artificial Intelligence &amp; Global Innovation.</text>
  <text x="100" y="520" font-family="-apple-system, BlinkMacSystemFont, 'Segoe UI', Roboto, sans-serif" font-size="22" font-weight="600" fill="#64748b">https://glodaxia.com &bull; BILINGUAL INTELLIGENCE</text>
</svg>